{"title":"Quella.Dannata.Pattuglia.1968.iTALiAN.AC3.DVDrip.Jim.PapeeteGrou","uid":8215494,"size":1167958927,"categoryP":"video","categoryS":"movies","magnet":"?xt=urn:btih:abe3f1eeaf7f56e0c5068c82aec8ac2c5c7064ba&amp;dn=Quella.Dannata.Pattuglia.1968.iTALiAN.AC3.DVDrip.Jim.PapeeteGrou&amp;tr=udp%3A%2F%2Ftracker.openbittorrent.com%3A80&amp;tr=udp%3A%2F%2Fopen.demonii.com%3A1337&amp;tr=udp%3A%2F%2Ftracker.coppersurfer.tk%3A6969&amp;tr=udp%3A%2F%2Fexodus.desync.com%3A6969","seeders":0,"leechers":1,"uploader":"akyray","files":-1,"time":1362332318,"description":"The Battle of the Damned (1969)\nQuella dannata pattuglia (original title)\n\nA small band of American soldiers is sent on a dangerous mission to blow up a German fuel depot in the deserts of North Africa.\n\nSubtitles: Romanian\n\nGeneral\nComplete name                            : Quella.Dannata.Pattuglia.1968.iTALiAN.AC3.DVDrip.Jim.PapeeteGroup.avi\nFormat                                   : AVI\nFormat/Info                              : Audio Video Interleave\nFile size                                : 1.09 GiB\nDuration                                 : 1h 20mn\nOverall bit rate                         : 1 943 Kbps\nMovie name                               : Quella.Dannata.Pattuglia.1968.iTALiAN.AC3.DVDrip.(Jim.PapeeteGroup)\nEncoded by                               : Jim.PapeeteGroup\nWriting application                      : VirtualDubMod 1.5.10.2 (build 2540/release) VirtualDubMod build 2540/release\n\nVideo\nID                                       : 0\nFormat                                   : MPEG-4 Visual\nFormat settings, BVOP                    : 1\nFormat settings, QPel                    : No\nFormat settings, GMC                     : No warppoints\nFormat settings, Matrix                  : Default (H.263)\nMuxing mode                              : Packed bitstream\nCodec ID                                 : DX50\nCodec ID/Hint                            : DivX 5\nDuration                                 : 1h 20mn\nBit rate                                 : 1 742 Kbps\nWidth                                    : 640 pixels\nHeight                                   : 352 pixels\nDisplay aspect ratio                     : 16:9\nFrame rate                               : 25.000 fps\nColor space                              : YUV\nChroma subsampling                       : 4:2:0\nBit depth                                : 8 bits\nScan type                                : Progressive\nCompression mode                         : Lossy\nBits/(Pixel*Frame)                       : 0.309\nStream size                              : 998 MiB (90%)\nWriting library                          : DivX 6.8.3-6.8.4 (UTC 2008-06-07)\n\nAudio\nID                                       : 1\nFormat                                   : AC-3\nFormat/Info                              : Audio Coding 3\nMode extension                           : CM (complete main)\nFormat settings, Endianness              : Big\nCodec ID                                 : 2000\nDuration                                 : 1h 20mn\nBit rate mode                            : Constant\nBit rate                                 : 192 Kbps\nChannel(s)                               : 2 channels\nChannel positions                        : Front: L R\nSampling rate                            : 48.0 KHz\nBit depth                                : 16 bits\nCompression mode                         : Lossy\nStream size                              : 110 MiB (10%)\nAlignment                                : Split accross interleaves\nInterleave, duration                     : 40 ms (1.00 video frame)\nInterleave, preload duration             : 500 ms\nLanguage                                 : Non definita / Italiano\n\n\nRomanien sub","torrent":{"xt":"urn:btih:abe3f1eeaf7f56e0c5068c82aec8ac2c5c7064ba","amp;dn":"Quella.Dannata.Pattuglia.1968.iTALiAN.AC3.DVDrip.Jim.PapeeteGrou","amp;tr":["udp%3A%2F%2Ftracker.openbittorrent.com%3A80","udp%3A%2F%2Fopen.demonii.com%3A1337","udp%3A%2F%2Ftracker.coppersurfer.tk%3A6969","udp%3A%2F%2Fexodus.desync.com%3A6969"],"infoHash":"abe3f1eeaf7f56e0c5068c82aec8ac2c5c7064ba","infoHashBuffer":{"type":"Buffer","data":[171,227,241,238,175,127,86,224,197,6,140,130,174,200,172,44,92,112,100,186]},"announce":[],"urlList":[]}}